<svg xmlns="http://www.w3.org/2000/svg" xmlns:xlink="http://www.w3.org/1999/xlink" version="1.1" x="0px" y="0px" viewBox="0 0 100 125" style="enable-background:new 0 0 100 100;" xml:space="preserve"><path d="M42.891,19.33c0.197,0.228,0.476,0.345,0.755,0.345c0.232,0,0.466-0.081,0.655-0.245c0.417-0.362,0.462-0.994,0.1-1.411  l-1.005-1.158c-0.361-0.418-0.993-0.462-1.41-0.1c-0.417,0.362-0.462,0.994-0.1,1.411L42.891,19.33z"/><path d="M61.849,18.751c0.197,0.228,0.476,0.345,0.755,0.345c0.232,0,0.466-0.081,0.655-0.245c0.417-0.362,0.462-0.994,0.1-1.411  l-1.005-1.158c-0.361-0.417-0.993-0.461-1.41-0.1c-0.417,0.362-0.462,0.994-0.1,1.411L61.849,18.751z"/><path d="M47.084,25.861c0.119,0,0.24-0.021,0.358-0.067l1.431-0.549c0.516-0.198,0.773-0.776,0.575-1.292  c-0.197-0.515-0.775-0.773-1.292-0.575l-1.431,0.549c-0.516,0.198-0.773,0.776-0.575,1.292  C46.303,25.617,46.682,25.861,47.084,25.861z"/><path d="M29.468,20.224c0.119,0,0.24-0.021,0.358-0.067l1.431-0.549c0.516-0.198,0.773-0.776,0.575-1.292  c-0.197-0.515-0.774-0.774-1.292-0.575l-1.431,0.549c-0.516,0.198-0.773,0.776-0.575,1.292  C28.687,19.979,29.065,20.224,29.468,20.224z"/><path d="M52.377,19.95c0.119,0,0.24-0.021,0.358-0.067l1.432-0.549c0.516-0.198,0.773-0.776,0.575-1.292  c-0.197-0.516-0.775-0.773-1.292-0.576l-1.432,0.549c-0.516,0.198-0.773,0.776-0.575,1.292C51.596,19.705,51.975,19.95,52.377,19.95  z"/><path d="M69.635,21.851c0.119,0,0.24-0.021,0.358-0.067l1.431-0.549c0.516-0.198,0.773-0.776,0.575-1.292  c-0.197-0.515-0.774-0.774-1.292-0.575l-1.431,0.549c-0.516,0.198-0.773,0.776-0.575,1.292  C68.854,21.606,69.232,21.851,69.635,21.851z"/><path d="M35.238,24.023l1.516,0.223c0.05,0.007,0.099,0.011,0.146,0.011c0.488,0,0.915-0.357,0.988-0.854  c0.08-0.546-0.298-1.055-0.844-1.135l-1.516-0.223c-0.561-0.085-1.055,0.298-1.135,0.844C34.314,23.435,34.692,23.943,35.238,24.023  z"/><path d="M58.565,23.912l1.517,0.223c0.05,0.007,0.099,0.011,0.146,0.011c0.488,0,0.915-0.357,0.988-0.855  c0.08-0.546-0.298-1.054-0.844-1.134l-1.517-0.223c-0.56-0.083-1.055,0.297-1.135,0.844C57.642,23.324,58.02,23.832,58.565,23.912z"/><path d="M16.046,58.505c-2.942,2.754-2.486,6.241-2.461,6.412c0.072,0.491,0.493,0.855,0.989,0.855c1.246,0,2.076,0.191,2.788,0.471  v6.602c-0.958,0.311-1.822,0.88-2.489,1.668c-1.043,1.231-1.489,2.85-1.224,4.441l0.611,3.668C14.974,86.897,18.637,90,22.97,90  H77.28c4.334,0,7.997-3.103,8.709-7.377l0.611-3.668c0.266-1.591-0.181-3.21-1.224-4.441c-0.616-0.727-1.401-1.265-2.271-1.589  v-6.759c0.666-0.235,1.447-0.393,2.57-0.393c0.548,0,0.994-0.441,1-0.989c0.002-0.154-0.002-3.353-2.592-6.247  c2.687-0.635,4.696-3.048,4.696-5.927v-1.59c0-3.258-2.571-5.919-5.789-6.081v-5.95c1.222-0.31,2.318-1.006,3.121-2.022  c1.109-1.402,1.51-3.204,1.099-4.943l-0.227-0.955c-2.935-12.404-13.887-21.067-26.633-21.067H39.645  c-13.139,0-24.447,9.37-26.891,22.279c-0.323,1.707,0.127,3.452,1.235,4.789c0.843,1.018,1.991,1.703,3.257,1.973v5.898  c-3.212,0.169-5.775,2.827-5.775,6.08v1.59C11.471,55.445,13.42,57.827,16.046,58.505z M80.917,72.632h-7.184  c-3.835,0-7.441,1.494-10.154,4.206l-3.764,3.764l-3.764-3.764c-2.713-2.712-6.318-4.206-10.153-4.206H19.362v-5.424  c0.979,0.456,2.184,0.859,4.096,0.859c2.464,0,3.759-0.669,4.901-1.259c1.076-0.556,2.005-1.036,3.983-1.036  c1.978,0,2.906,0.48,3.982,1.036c1.143,0.59,2.437,1.259,4.901,1.259s3.76-0.669,4.902-1.259c1.076-0.556,2.006-1.036,3.984-1.036  c1.979,0,2.91,0.48,3.986,1.036c1.143,0.59,2.438,1.259,4.903,1.259s3.76-0.669,4.902-1.259c1.076-0.556,2.006-1.036,3.984-1.036  c1.98,0,2.911,0.48,3.988,1.037c1.144,0.59,2.439,1.259,4.905,1.259c2.061,0,3.302-0.468,4.322-0.966v5.493  C81.04,72.6,80.978,72.614,80.917,72.632z M84.628,78.625l-0.611,3.668C83.466,85.601,80.633,88,77.28,88H22.97  c-3.352,0-6.185-2.4-6.736-5.706l-0.611-3.668c-0.168-1.01,0.115-2.038,0.777-2.82c0.548-0.647,1.309-1.048,2.134-1.173h27.364  c3.301,0,6.404,1.286,8.739,3.62l4.471,4.471c0.195,0.195,0.451,0.293,0.707,0.293s0.512-0.098,0.707-0.293l4.471-4.471  c2.335-2.334,5.439-3.62,8.74-3.62h7.984c0.826,0.125,1.586,0.526,2.135,1.173C84.513,76.587,84.796,77.615,84.628,78.625z   M80.771,65.032c-1.077,0.556-2.007,1.036-3.987,1.036s-2.91-0.48-3.987-1.036c-1.144-0.59-2.439-1.259-4.906-1.259  c-2.465,0-3.76,0.669-4.902,1.259c-1.076,0.556-2.006,1.036-3.984,1.036c-1.979,0-2.909-0.48-3.985-1.036  c-1.143-0.59-2.438-1.259-4.904-1.259c-2.465,0-3.76,0.669-4.902,1.259c-1.076,0.556-2.006,1.036-3.984,1.036  s-2.907-0.48-3.983-1.036c-1.143-0.59-2.437-1.259-4.9-1.259s-3.759,0.669-4.901,1.259c-1.076,0.556-2.005,1.036-3.983,1.036  s-2.907-0.48-3.983-1.036c-0.98-0.506-2.072-1.071-3.919-1.221c0.086-1.187,0.629-3.395,3.298-4.899  c0.095-0.054,0.169-0.129,0.238-0.206h62.292c0.035,0.038,0.058,0.085,0.1,0.118c2.166,1.72,2.863,3.811,3.087,4.998  C82.796,63.986,81.729,64.537,80.771,65.032z M19.246,44.884v-5.712H80.99v5.712H54.125c-3.622,0-7.027,1.411-9.59,3.972  l-3.997,3.998l-3.998-3.998c-2.562-2.562-5.967-3.972-9.59-3.972H19.246z M14.719,32.652c2.265-11.966,12.748-20.651,24.926-20.651  h20.706c11.815,0,21.967,8.03,24.687,19.528l0.226,0.954c0.271,1.141,0.008,2.323-0.72,3.242c-0.728,0.92-1.817,1.447-2.989,1.447  h-63.09c-1.139,0-2.208-0.503-2.935-1.38S14.507,33.771,14.719,32.652z M13.471,51.019c0-2.259,1.838-4.096,4.097-4.096h0.83  c0.068,0,0.127-0.026,0.191-0.039h8.362c3.089,0,5.992,1.203,8.176,3.386l4.705,4.705c0.188,0.188,0.441,0.293,0.707,0.293  s0.52-0.105,0.707-0.293l4.704-4.705c2.185-2.184,5.088-3.386,8.176-3.386H81.99c0.099,0,0.189-0.03,0.279-0.056  c0.127,0.058,0.265,0.095,0.414,0.095c2.259,0,4.097,1.837,4.097,4.096v1.59c0,2.258-1.838,4.096-4.097,4.096H17.567  c-2.259,0-4.097-1.837-4.097-4.096V51.019z"/><text x="0" y="115" fill="#000000" font-size="5px" font-weight="bold" font-family="'Helvetica Neue', Helvetica, Arial-Unicode, Arial, Sans-serif">Created by Made by Made</text><text x="0" y="120" fill="#000000" font-size="5px" font-weight="bold" font-family="'Helvetica Neue', Helvetica, Arial-Unicode, Arial, Sans-serif">from the Noun Project</text></svg>