<?xml version="1.0" encoding="utf-8"?>
<!-- Generator: Adobe Illustrator 23.0.3, SVG Export Plug-In . SVG Version: 6.00 Build 0)  -->
<svg version="1.1" id="Capa_1" xmlns="http://www.w3.org/2000/svg" xmlns:xlink="http://www.w3.org/1999/xlink" x="0px" y="0px"
	 viewBox="0 0 72.2 94" style="enable-background:new 0 0 72.2 94;" xml:space="preserve">
<path d="M70.4,17.7l-6.4-2.9c-0.4-0.2-0.8-0.3-1.3-0.3c-1.1,0-2.2,0.6-2.7,1.7l-2.5,5.4l1.4-8.3c0.3-1.6-0.8-3.2-2.4-3.5l-6.9-1.2
	c-0.2,0-0.3,0-0.5,0c-1.4,0-2.7,1-3,2.5L43.8,25h-1.4V3c0-1.7-1.3-3-3-3h-7c-1.7,0-3,1.3-3,3v13h-7c-0.1,0-0.2,0-0.4,0l-2.9-12
	c-0.3-1.4-1.6-2.3-2.9-2.3c-0.2,0-0.5,0-0.7,0.1L8.7,3.5c-1.6,0.4-2.6,2-2.2,3.6l2,8.2c0,0,0,0-0.1,0l-6.5,2.5
	c-1.5,0.6-2.3,2.3-1.7,3.9l5.6,14.8c-0.2,0.4-0.4,0.9-0.4,1.4l4,53.1c0,1.6,1.3,2.9,3,2.9h46.1c1.6,0,2.9-1.3,2.9-2.9l4-53.1
	c0-0.5-0.2-1-0.4-1.5l6.8-14.8C72.6,20.2,71.9,18.4,70.4,17.7z M50,12.9l4.9,0.8l-3.4,20V28c0-1.7-1.3-3-3-3h-0.6L50,12.9z M47.4,29
	v16.4c-1.2,2.1-2,4.7-2,7.6c-1.1,0.6-2.1,1.1-3,1.5V29H47.4z M38.4,4v24v28.5c-1.8,0.7-3.2,0.9-5,0.2V4H38.4z M28.4,20v34.2
	c-0.6-0.4-1.3-0.8-2-1.2c0-3.4-1.2-6.2-3-8.5V20H28.4z M15.5,6l3.9,16.1v18.4c-0.3-0.2-0.5-0.4-0.8-0.6l-8-32.8L15.5,6z M9,19.5
	l1.6,4.2l3.3,13.5c-1.7-0.8-3.1-1.4-4.1-1.7L4.3,21.2L9,19.5z M61.1,35.4c-1.5,0.5-3.9,1.4-6.4,2.9l0.3-1.5l8.3-18l4.5,2.1
	L61.1,35.4z"/>
</svg>
