<?xml version="1.0" encoding="utf-8"?>
<!-- Generator: Adobe Illustrator 23.0.3, SVG Export Plug-In . SVG Version: 6.00 Build 0)  -->
<svg version="1.1" id="Capa_1" xmlns="http://www.w3.org/2000/svg" xmlns:xlink="http://www.w3.org/1999/xlink" x="0px" y="0px"
	 viewBox="0 0 28.7 41.3" style="enable-background:new 0 0 28.7 41.3;" xml:space="preserve">
<g>
	<path d="M20.3,4.8V0.2h-12v4.6l-8,8v24.4c0,2.2,1.8,4,4,4h20c2.2,0,4-1.8,4-4V12.8L20.3,4.8z M18.3,2.2v2h-8v-2H18.3z M24.3,39.2
		h-20c-1.1,0-2-0.9-2-2v-2h20v-2h-20v-4h20v-2h-20v-4h20v-2h-20v-4h20v-2h-20v-1.6l7.4-7.4h9.2l7.4,7.4v1.6h-2v2h2v4h-2v2h2v4h-2v2
		h2v4h-2v2h2v2C26.3,38.3,25.4,39.2,24.3,39.2z"/>
</g>
</svg>
