<?xml version="1.0" encoding="utf-8"?>
<!-- Generator: Adobe Illustrator 23.0.3, SVG Export Plug-In . SVG Version: 6.00 Build 0)  -->
<svg version="1.1" id="Capa_1" xmlns="http://www.w3.org/2000/svg" xmlns:xlink="http://www.w3.org/1999/xlink" x="0px" y="0px"
	 viewBox="0 0 86.2 61.2" style="enable-background:new 0 0 86.2 61.2;" xml:space="preserve">
<g>
	<path d="M83.4,25.1c-1.6-1.2-3.8-1.5-6.7-0.9c-1.3,0.3-9.6,2.2-20,4.6c-19.9,4.5-47,10.7-50.6,11.5c-1.3,0.3-2,0-2.1-0.3
		c-0.1-0.2,0.1-0.7,0.6-1.1c0.8-0.7,1.9-1.6,3.2-2.6c2.8-2.3,6.4-5.2,8.3-6.7c2.3,1.5,6.1,2.2,9.3-0.4c1.7-1.3,2.5-3.3,2.5-5.4
		c0-1.2-0.4-2.4-1-3.4c1.4-1.2,3.8-3.2,6.4-5.3c5.2-4.3,10.5-8.8,11.6-9.8C46,4.2,47.1,4,48.3,4.6c1.5,0.7,29.6,15.9,29.9,16.1
		c0.7,0.4,1.6,0.1,2-0.6c0.4-0.7,0.1-1.6-0.6-2C78.4,17.5,51.1,2.7,49.6,2c-2.4-1.2-4.8-0.8-6.8,1.2c-1,0.9-6.7,5.8-11.4,9.6
		c-4.3,3.6-7,5.8-7.5,6.3c-0.4,0.4-0.6,0.8-0.6,1.2s0.2,0.8,0.6,1.1s0.9,1.2,0.9,2.4c0,0.9-0.2,2.1-1.4,3c-2.5,2-5.4,0.7-6.4-0.2
		c-0.5-0.5-1.3-0.5-1.8-0.2c-1.5,1-5.9,4.6-9.4,7.4c-1.2,1-2.4,1.9-3.2,2.6C1,37.7,0.5,39.5,1.2,41c0.6,1.3,2.3,2.5,5.3,1.9
		c3.6-0.8,30.8-7,50.7-11.5c10.5-2.4,18.7-4.3,20-4.6c1.9-0.4,3.4-0.3,4.2,0.3c0.7,0.5,0.8,1.3,0.8,1.8c0.2,3.8,0.3,10.2,0.2,11.3
		c-0.2,1.2-0.5,2.1-2.4,2.5c-2.2,0.5-7.2,1.4-10.3,1.9c0,0,0,0-0.1,0c0.2-2.2,0.1-5.3-1.9-7.2c-1.7-1.5-4.2-1.9-7.5-1.1
		c-2.7,0.7-4.5,2-5.3,4c-0.9,2.4,0,5.1,0.9,6.9c-4.6,1-15.7,3.4-25.7,5.6c-9.6,2.1-18.7,4.1-19.4,4.2l0,0c-1.4,0.3-2.4-0.2-2.7-0.7
		c-0.3-0.5,0.1-1.2,0.4-1.6c1.7-2.1,3.3-4.1,2.5-6.4C10,46,7.5,44,3.6,44.7c0,0,0,0-0.1,0c-0.8,0.1-1.3,0.9-1.2,1.7
		c0.2,0.8,0.9,1.3,1.7,1.2c0,0,0,0,0.1,0c3-0.5,3.9,1.4,4,1.8c0.2,0.6-0.5,1.6-2,3.5c-1.3,1.6-1.5,3.4-0.6,4.9
		c1,1.7,3.3,2.5,5.8,2.1l0,0c0.8-0.1,9.4-2,19.5-4.2c12.3-2.7,26.2-5.8,27.7-6c0.5-0.1,0.9-0.4,1.1-0.9s0.1-1-0.2-1.4
		c-0.9-1.2-2.4-4.1-1.7-6c0.4-1,1.5-1.8,3.2-2.2c1.6-0.4,3.7-0.6,4.8,0.4c1.5,1.4,1,5,0.8,6.3v0.3c-0.1,0.5,0.1,0.9,0.4,1.3
		c0.3,0.3,0.8,0.5,1.3,0.4c0.4-0.1,1.1-0.2,2-0.4c3-0.5,8.2-1.5,10.4-1.9c3.6-0.8,4.4-3,4.7-4.9c0.3-1.8-0.1-10.9-0.1-11.9
		C85.3,27.5,84.6,26,83.4,25.1z"/>
	<path d="M34.2,20.4c0.5,3,3.4,4.9,6.3,4.4c2.9-0.5,4.9-3.4,4.4-6.3s-3.4-4.9-6.3-4.4C35.6,14.6,33.6,17.4,34.2,20.4z M42,19
		c0.2,1.4-0.7,2.7-2,2.9s-2.7-0.7-2.9-2c-0.2-1.4,0.7-2.7,2-2.9C40.4,16.7,41.7,17.6,42,19z"/>
	<path d="M42.2,42.2c-0.5-2.9-3.4-4.9-6.3-4.4c-2.9,0.5-4.9,3.4-4.4,6.3c0.5,3,3.4,4.9,6.3,4.4C40.7,48,42.7,45.2,42.2,42.2z
		 M34.3,43.6c-0.2-1.4,0.7-2.7,2-2.9c1.4-0.2,2.7,0.7,2.9,2c0.2,1.4-0.7,2.7-2,2.9C35.9,45.9,34.6,45,34.3,43.6z"/>
	<path d="M78.5,33.5c-0.5-2.7-3.1-4.5-5.8-4c-2.7,0.5-4.5,3.1-4,5.8s3.1,4.5,5.8,4C77.3,38.8,79,36.2,78.5,33.5z M71.7,34.8
		c-0.2-1.1,0.5-2.1,1.6-2.3s2.1,0.5,2.3,1.6c0.2,1.1-0.5,2.1-1.6,2.3C72.9,36.6,71.9,35.9,71.7,34.8z"/>
	<path d="M53.2,21.3c0.6,3.4,3.9,5.7,7.3,5c3.4-0.6,5.7-3.9,5-7.3c-0.6-3.4-3.9-5.7-7.3-5S52.6,17.9,53.2,21.3z M62.7,19.6
		c0.3,1.8-0.9,3.5-2.7,3.9c-1.8,0.3-3.5-0.9-3.9-2.7c-0.3-1.8,0.9-3.5,2.7-3.9C60.6,16.6,62.3,17.8,62.7,19.6z"/>
</g>
</svg>
