<?xml version="1.0" encoding="utf-8"?>
<!-- Generator: Adobe Illustrator 23.0.3, SVG Export Plug-In . SVG Version: 6.00 Build 0)  -->
<svg version="1.1" id="Capa_1" xmlns="http://www.w3.org/2000/svg" xmlns:xlink="http://www.w3.org/1999/xlink" x="0px" y="0px"
	 viewBox="0 0 64 80" style="enable-background:new 0 0 64 80;" xml:space="preserve">
<g>
	<path d="M38,24.1v-4.6H26v4.6l-8,8v24.4c0,2.2,1.8,4,4,4h20c2.2,0,4-1.8,4-4V32.1L38,24.1z M36,21.5v2h-8v-2H36z M42,58.5H22
		c-1.1,0-2-0.9-2-2v-2h20v-2H20v-4h20v-2H20v-4h20v-2H20v-4h20v-2H20v-1.6l7.4-7.4h9.2l7.4,7.4v1.6h-2v2h2v4h-2v2h2v4h-2v2h2v4h-2v2
		h2v2C44,57.6,43.1,58.5,42,58.5z"/>
</g>
</svg>
