<?xml version="1.0" encoding="utf-8"?>
<!-- Generator: Adobe Illustrator 23.0.3, SVG Export Plug-In . SVG Version: 6.00 Build 0)  -->
<svg version="1.1" id="Capa_1" xmlns="http://www.w3.org/2000/svg" xmlns:xlink="http://www.w3.org/1999/xlink" x="0px" y="0px"
	 viewBox="0 0 58.5 90.2" style="enable-background:new 0 0 58.5 90.2;" xml:space="preserve">
<path d="M56.5,4c1.1,0,2-0.9,2-2s-0.9-2-2-2H40.9c-0.8,0-1.5,0.4-1.8,1.2l-5.4,11.7H12.4c-0.6,0-1.2,0.3-1.5,0.7L5,20.8H2
	c-1.1,0-2,0.9-2,2v7.9c0,1.1,0.9,2,2,2h2.9L11,88.4c0.1,1,1,1.8,2,1.8h31.5c1,0,1.9-0.8,2-1.8l6.1-55.7h3c1.1,0,2-0.9,2-2v-7.9
	c0-1.1-0.9-2-2-2h-3.1l-5.9-7.2c-0.4-0.5-0.9-0.7-1.5-0.7h-6.9L42.3,4C42.3,4,56.5,4,56.5,4z M42.6,86.2H14.7l-1.3-11.9h9.1
	c6.9,0,11.3-1.5,13.2-4.7c2.5-4.2-0.3-9.6-1.5-11.9L34,57.3c-1-1.9-2.9-5.5-1.7-7.4c0.9-1.5,3.9-2.3,8.4-2.3h6.4L42.6,86.2z
	 M47.3,43.6h-6.8c-6.2,0-10.1,1.4-11.8,4.3c-2.3,3.8,0.3,8.7,1.6,11.3l0.2,0.4c1.4,2.7,2.9,6,1.7,8c-0.8,1.3-3.1,2.8-9.8,2.8h-9.5
	L8.8,32.8h39.7L47.3,43.6z M53.5,24.8v4h-2.8H6.6H3.9v-4h1.9h45.6C51.4,24.8,53.5,24.8,53.5,24.8z M44,16.9l3.3,4H10.1l3.3-4H44z"/>
</svg>
