<?xml version="1.0" encoding="utf-8"?>
<!-- Generator: Adobe Illustrator 23.0.3, SVG Export Plug-In . SVG Version: 6.00 Build 0)  -->
<svg version="1.1" id="Capa_1" xmlns="http://www.w3.org/2000/svg" xmlns:xlink="http://www.w3.org/1999/xlink" x="0px" y="0px"
	 viewBox="0 0 100 125" style="enable-background:new 0 0 100 125;" xml:space="preserve">
<path d="M73.9,8.8c1.1,0,2-0.9,2-2s-0.9-2-2-2H58.3c-0.8,0-1.5,0.4-1.8,1.2l-5.4,11.7H29.8c-0.6,0-1.2,0.3-1.5,0.7l-5.9,7.2h-3
	c-1.1,0-2,0.9-2,2v7.9c0,1.1,0.9,2,2,2h2.9l6.1,55.7c0.1,1,1,1.8,2,1.8h31.5c1,0,1.9-0.8,2-1.8L70,37.5h3c1.1,0,2-0.9,2-2v-7.9
	c0-1.1-0.9-2-2-2h-3.1L64,18.4c-0.4-0.5-0.9-0.7-1.5-0.7h-6.9l4.1-8.9C59.7,8.8,73.9,8.8,73.9,8.8z M60,91H32.1l-1.3-11.9h9.1
	c6.9,0,11.3-1.5,13.2-4.7c2.5-4.2-0.3-9.6-1.5-11.9l-0.2-0.4c-1-1.9-2.9-5.5-1.7-7.4c0.9-1.5,3.9-2.3,8.4-2.3h6.4L60,91z M64.7,48.4
	h-6.8c-6.2,0-10.1,1.4-11.8,4.3c-2.3,3.8,0.3,8.7,1.6,11.3l0.2,0.4c1.4,2.7,2.9,6,1.7,8c-0.8,1.3-3.1,2.8-9.8,2.8h-9.5l-4.1-37.6
	h39.7L64.7,48.4z M70.9,29.6v4h-2.8H24h-2.7v-4h1.9h45.6C68.8,29.6,70.9,29.6,70.9,29.6z M61.4,21.7l3.3,4H27.5l3.3-4H61.4z"/>
</svg>
