<?xml version="1.0" encoding="utf-8"?>
<!-- Generator: Adobe Illustrator 23.0.3, SVG Export Plug-In . SVG Version: 6.00 Build 0)  -->
<svg version="1.1" id="Capa_1" xmlns="http://www.w3.org/2000/svg" xmlns:xlink="http://www.w3.org/1999/xlink" x="0px" y="0px"
	 viewBox="0 0 100 125" style="enable-background:new 0 0 100 125;" xml:space="preserve">
<g>
	<path d="M90.1,44.2c-1.6-1.2-3.8-1.5-6.7-0.9c-1.3,0.3-9.6,2.2-20,4.6c-19.9,4.5-47,10.7-50.6,11.5c-1.3,0.3-2,0-2.1-0.3
		c-0.1-0.2,0.1-0.7,0.6-1.1c0.8-0.7,1.9-1.6,3.2-2.6c2.8-2.3,6.4-5.2,8.3-6.7c2.3,1.5,6.1,2.2,9.3-0.4c1.7-1.3,2.5-3.3,2.5-5.4
		c0-1.2-0.4-2.4-1-3.4c1.4-1.2,3.8-3.2,6.4-5.3c5.2-4.3,10.5-8.8,11.6-9.8c1.1-1.1,2.2-1.3,3.4-0.7c1.5,0.7,29.6,15.9,29.9,16.1
		c0.7,0.4,1.6,0.1,2-0.6c0.4-0.7,0.1-1.6-0.6-2c-1.2-0.6-28.5-15.4-30-16.1c-2.4-1.2-4.8-0.8-6.8,1.2c-1,0.9-6.7,5.8-11.4,9.6
		c-4.3,3.6-7,5.8-7.5,6.3C30.2,38.6,30,39,30,39.4s0.2,0.8,0.6,1.1c0.4,0.3,0.9,1.2,0.9,2.4c0,0.9-0.2,2.1-1.4,3
		c-2.5,2-5.4,0.7-6.4-0.2c-0.5-0.5-1.3-0.5-1.8-0.2c-1.5,1-5.9,4.6-9.4,7.4c-1.2,1-2.4,1.9-3.2,2.6c-1.6,1.3-2.1,3.1-1.4,4.6
		c0.6,1.3,2.3,2.5,5.3,1.9c3.6-0.8,30.8-7,50.7-11.5c10.5-2.4,18.7-4.3,20-4.6c1.9-0.4,3.4-0.3,4.2,0.3c0.7,0.5,0.8,1.3,0.8,1.8
		c0.2,3.8,0.3,10.2,0.2,11.3c-0.2,1.2-0.5,2.1-2.4,2.5c-2.2,0.5-7.2,1.4-10.3,1.9c0,0,0,0-0.1,0c0.2-2.2,0.1-5.3-1.9-7.2
		c-1.7-1.5-4.2-1.9-7.5-1.1c-2.7,0.7-4.5,2-5.3,4c-0.9,2.4,0,5.1,0.9,6.9c-4.6,1-15.7,3.4-25.7,5.6c-9.6,2.1-18.7,4.1-19.4,4.2
		c0,0,0,0,0,0c-1.4,0.3-2.4-0.2-2.7-0.7c-0.3-0.5,0.1-1.2,0.4-1.6c1.7-2.1,3.3-4.1,2.5-6.4c-0.9-2.3-3.4-4.3-7.3-3.6c0,0,0,0-0.1,0
		c-0.8,0.1-1.3,0.9-1.2,1.7c0.2,0.8,0.9,1.3,1.7,1.2c0,0,0,0,0.1,0c3-0.5,3.9,1.4,4,1.8c0.2,0.6-0.5,1.6-2,3.5
		c-1.3,1.6-1.5,3.4-0.6,4.9c1,1.7,3.3,2.5,5.8,2.1c0,0,0,0,0,0c0.8-0.1,9.4-2,19.5-4.2c12.3-2.7,26.2-5.8,27.7-6
		c0.5-0.1,0.9-0.4,1.1-0.9c0.2-0.5,0.1-1-0.2-1.4c-0.9-1.2-2.4-4.1-1.7-6c0.4-1,1.5-1.8,3.2-2.2c1.6-0.4,3.7-0.6,4.8,0.4
		c1.5,1.4,1,5,0.8,6.3l0,0.3c-0.1,0.5,0.1,0.9,0.4,1.3c0.3,0.3,0.8,0.5,1.3,0.4c0.4-0.1,1.1-0.2,2-0.4c3-0.5,8.2-1.5,10.4-1.9
		c3.6-0.8,4.4-3,4.7-4.9c0.3-1.8-0.1-10.9-0.1-11.9C92,46.6,91.3,45.1,90.1,44.2z"/>
	<path d="M40.9,39.5c0.5,3,3.4,4.9,6.3,4.4c2.9-0.5,4.9-3.4,4.4-6.3c-0.5-2.9-3.4-4.9-6.3-4.4C42.3,33.7,40.3,36.5,40.9,39.5z
		 M48.7,38.1c0.2,1.4-0.7,2.7-2,2.9s-2.7-0.7-2.9-2c-0.2-1.4,0.7-2.7,2-2.9C47.1,35.8,48.4,36.7,48.7,38.1z"/>
	<path d="M48.9,61.3c-0.5-2.9-3.4-4.9-6.3-4.4c-2.9,0.5-4.9,3.4-4.4,6.3c0.5,3,3.4,4.9,6.3,4.4C47.4,67.1,49.4,64.3,48.9,61.3z
		 M41,62.7c-0.2-1.4,0.7-2.7,2-2.9c1.4-0.2,2.7,0.7,2.9,2c0.2,1.4-0.7,2.7-2,2.9C42.6,65,41.3,64.1,41,62.7z"/>
	<path d="M85.2,52.6c-0.5-2.7-3.1-4.5-5.8-4c-2.7,0.5-4.5,3.1-4,5.8c0.5,2.7,3.1,4.5,5.8,4C84,57.9,85.7,55.3,85.2,52.6z M78.4,53.9
		c-0.2-1.1,0.5-2.1,1.6-2.3c1.1-0.2,2.1,0.5,2.3,1.6c0.2,1.1-0.5,2.1-1.6,2.3C79.6,55.7,78.6,55,78.4,53.9z"/>
	<path d="M59.9,40.4c0.6,3.4,3.9,5.7,7.3,5c3.4-0.6,5.7-3.9,5-7.3c-0.6-3.4-3.9-5.7-7.3-5S59.3,37,59.9,40.4z M69.4,38.7
		c0.3,1.8-0.9,3.5-2.7,3.9c-1.8,0.3-3.5-0.9-3.9-2.7c-0.3-1.8,0.9-3.5,2.7-3.9C67.3,35.7,69,36.9,69.4,38.7z"/>
</g>
</svg>
