<?xml version="1.0" encoding="utf-8"?>
<!-- Generator: Adobe Illustrator 23.0.3, SVG Export Plug-In . SVG Version: 6.00 Build 0)  -->
<svg version="1.1" id="Capa_1" xmlns="http://www.w3.org/2000/svg" xmlns:xlink="http://www.w3.org/1999/xlink" x="0px" y="0px"
	 viewBox="0 0 24 30" style="enable-background:new 0 0 24 30;" xml:space="preserve">
<path d="M10.6,12L3.8,5.2c-0.4-0.4-0.4-1,0-1.4c0.4-0.4,1-0.4,1.4,0l6.8,6.8l6.8-6.8c0.4-0.4,1-0.4,1.4,0c0.4,0.4,0.4,1,0,1.4
	L13.4,12l6.8,6.8c0.4,0.4,0.4,1,0,1.4c-0.4,0.4-1,0.4-1.4,0L12,13.4l-6.8,6.8c-0.4,0.4-1,0.4-1.4,0c-0.4-0.4-0.4-1,0-1.4L10.6,12z"
	/>
</svg>
