<?xml version="1.0" encoding="utf-8"?>
<!-- Generator: Adobe Illustrator 23.0.3, SVG Export Plug-In . SVG Version: 6.00 Build 0)  -->
<svg version="1.1" id="Capa_1" xmlns="http://www.w3.org/2000/svg" xmlns:xlink="http://www.w3.org/1999/xlink" x="0px" y="0px"
	 viewBox="0 0 1.7 1.9" style="enable-background:new 0 0 1.7 1.9;" xml:space="preserve">
<g>
	<path d="M0.2,0.6h1.3c0,0,0,0,0,0c0,0,0,0,0,0c0-0.1-0.1-0.2-0.2-0.3C1.2,0.1,1,0.1,0.8,0.1s-0.4,0-0.5,0.1
		C0.2,0.3,0.1,0.4,0.2,0.6C0.1,0.6,0.1,0.6,0.2,0.6C0.2,0.6,0.2,0.6,0.2,0.6z M0.8,0.8h0.4h0h0.3c0,0,0,0,0,0v0c0,0,0,0,0,0s0,0,0,0
		s0,0,0,0h0H0.8H0.2h0c0,0,0,0,0,0s0,0,0,0s0,0,0,0s0,0,0,0C0.1,0.8,0.8,0.8,0.8,0.8z M1.1,0.9H1H1.1C1.1,1,1.1,0.9,1.1,0.9z
		 M1.6,0.9C1.6,0.9,1.7,0.9,1.6,0.9c0,0.1,0,0.2,0,0.2c0,0,0,0,0,0c0,0,0,0,0,0.1v0.1c0,0.1,0,0.1-0.1,0.2l0,0c0,0-0.1,0.1-0.2,0.1
		H0.3c-0.1,0-0.1,0-0.2-0.1l0,0c0,0-0.1-0.1-0.1-0.2V1.1c0,0,0,0,0-0.1c0,0,0,0,0,0C0,1,0,1,0,1c0,0,0-0.1,0-0.1c0,0,0-0.1,0-0.1
		c0,0,0-0.1,0-0.1c0,0,0,0,0,0c0,0,0,0,0-0.1c0-0.2,0.1-0.3,0.2-0.4C0.4,0.1,0.6,0,0.8,0C1,0,1.2,0.1,1.4,0.2
		c0.1,0.1,0.2,0.2,0.2,0.4c0,0,0,0.1,0,0.1c0,0,0,0,0,0C1.6,0.7,1.7,0.7,1.6,0.9C1.7,0.8,1.6,0.8,1.6,0.9z M0.1,0.9
		C0.1,0.9,0.1,0.9,0.1,0.9C0.1,0.9,0.1,0.9,0.1,0.9C0.1,1,0.1,1,0.1,0.9c0,0.1,0,0.1,0,0.1H1L0.8,0.9C0.8,0.9,0.1,0.9,0.1,0.9z
		 M1.2,1h0.4c0,0,0,0,0,0s0,0,0,0s0,0,0,0s0,0,0,0H1.2C1.2,0.9,1.2,1,1.2,1z M1.5,1.1H0.2c0,0,0,0,0,0c0,0,0,0,0,0v0.1
		c0,0,0,0.1,0,0.1l0,0c0,0,0.1,0,0.1,0h1.1c0,0,0.1,0,0.1,0l0,0c0,0,0-0.1,0-0.1L1.5,1.1C1.5,1.1,1.5,1.1,1.5,1.1L1.5,1.1
		C1.5,1.1,1.5,1.1,1.5,1.1z"/>
</g>
<text transform="matrix(1 0 0 1 0 16.493)" style="font-family:'HelveticaNeue-Bold'; font-size:5px;">Created by Deemak Daksina</text>
<text transform="matrix(1 0 0 1 0 21.493)" style="font-family:'HelveticaNeue-Bold'; font-size:5px;">from the Noun Project</text>
</svg>
