<?xml version="1.0" encoding="utf-8"?>
<!-- Generator: Adobe Illustrator 23.0.3, SVG Export Plug-In . SVG Version: 6.00 Build 0)  -->
<svg version="1.1" id="Capa_1" xmlns="http://www.w3.org/2000/svg" xmlns:xlink="http://www.w3.org/1999/xlink" x="0px" y="0px"
	 viewBox="0 0 43.8 60.1" style="enable-background:new 0 0 43.8 60.1;" xml:space="preserve">
<title>onion rings-food-snack-fast food-junk food</title>
<path d="M7.8,54.1h30v-10h-30V54.1z M9.8,46.1h26v6h-26V46.1z"/>
<rect x="15.8" y="48.1" width="18" height="2"/>
<path d="M4,14.3L4,14.3c-2,1.7-3.1,4.2-3.1,6.8v10.1l2,28c0,0.5,0.5,0.9,1,0.9h36c0.5,0,1-0.4,1-0.9l2-28V21.1c0-2.2-0.8-4.3-2.2-6
	L40.6,15c0.2-1,0.4-2,0.4-3c0-6.6-5.4-12-12-12c-5.8,0.1-10.6,4.1-11.8,9.5c-1.1-0.2-2.2-0.4-3.3-0.4C9.9,9.1,6.3,11.1,4,14.3z
	 M2.9,30.5v-4.6c1.9,4.4,6.2,7.2,11,7.2c1.1,0,2.1-0.1,3.1-0.4c0.3,2,1,3.8,2.1,5.4h-1L2.9,30.5z M24.3,14.1h9.2
	c-1.1,2.5-4.1,3.7-6.6,2.6C25.7,16.2,24.8,15.3,24.3,14.1z M23.9,12.1c0-2.8,2.2-5,5-5s5,2.2,5,5H23.9z M28.9,21.1
	c5.5,0,10,4.5,10,10c0,0.1,0,0.3,0,0.4l-3.3,1.6c1.1-3.7-0.9-7.6-4.6-8.7s-7.6,0.9-8.7,4.6c-1.1,3.6,0.8,7.4,4.3,8.6l-0.9,0.5h-3.9
	c-1.9-1.9-2.9-4.4-2.9-7C18.9,25.6,23.4,21.1,28.9,21.1z M29.8,36L29.8,36c-0.3,0.1-0.6,0.1-0.9,0.1c-2.8,0-5-2.2-5-5s2.2-5,5-5
	s5,2.2,5,5c0,1.2-0.5,2.4-1.3,3.3c-0.1,0.1-0.1,0.2-0.2,0.3L29.8,36z M39,58.1H4.8L3,32.8L17.4,40c0.2,0.1,0.3,0.1,0.5,0.1h8
	c0.2,0,0.3,0,0.5-0.1l14.4-7.2L39,58.1z M40.9,21.1v9.4l0,0c-0.2-3.5-1.9-6.8-4.7-8.9c1.5-1.2,2.7-2.7,3.5-4.4
	C40.5,18.4,40.9,19.7,40.9,21.1z M28.9,2.1c5.5,0,10,4.5,10,10c0,3.4-1.7,6.5-4.5,8.3c-1.7-0.8-3.6-1.3-5.5-1.3
	c-1.1,0-2.1,0.1-3.1,0.4c-0.1-0.4-0.1-0.9-0.2-1.3c1,0.6,2.2,0.9,3.3,0.9c3.9,0,7-3.1,7-7s-3.1-7-7-7s-7,3.1-7,7l0,0
	c-0.9-0.8-1.8-1.4-2.8-1.9C20,5.5,24.1,2.1,28.9,2.1z M13.9,11.1c5.2,0,9.5,3.9,10,9.1l0,0c-1.1,0.5-2.2,1.2-3.1,2.1
	c0.1-0.4,0.1-0.8,0.1-1.2c0-3.9-3.1-7-7-7s-7,3.1-7,7s3.1,7,7,7c1.3,0,2.6-0.4,3.7-1.1c-0.4,1.2-0.7,2.4-0.7,3.6c-1,0.3-2,0.5-3,0.5
	c-5.5,0-10-4.5-10-10S8.4,11.1,13.9,11.1z M18.9,21.1c0,2.8-2.2,5-5,5s-5-2.2-5-5s2.2-5,5-5S18.9,18.3,18.9,21.1z"/>
</svg>
