<svg xmlns="http://www.w3.org/2000/svg" xmlns:xlink="http://www.w3.org/1999/xlink" viewBox="0 0 24 30" version="1.1" x="0px" y="0px"><title>food_013-sandwich-bread-fast_food-eat</title><desc>Created with Sketch.</desc><g stroke="none" stroke-width="1" fill="none" fill-rule="evenodd"><g transform="translate(-141.000000, -93.000000)" fill="#000000"><g transform="translate(141.000000, 99.000000)"><path d="M1,5.5 C1,5.77614237 1.22385763,6 1.5,6 C1.77614237,6 2,5.77614237 2,5.5 L2,3.5 C2,3.22385763 1.77614237,3 1.5,3 C1.22385763,3 1,3.22385763 1,3.5 L1,5.5 Z"/><path d="M22,10.5 C22,10.7761424 22.2238576,11 22.5,11 C22.7761424,11 23,10.7761424 23,10.5 L23,8.5 C23,8.22385763 22.7761424,8 22.5,8 C22.2238576,8 22,8.22385763 22,8.5 L22,10.5 Z"/><path d="M22.3841897,8.98640311 C22.6528228,9.05036335 22.9224429,8.88444328 22.9864031,8.61581026 C23.0503633,8.34717725 22.8844433,8.07755714 22.6158103,8.01359689 L1.61581026,3.01359689 C1.34717725,2.94963665 1.07755714,3.11555672 1.01359689,3.38418974 C0.94963665,3.65282275 1.11555672,3.92244286 1.38418974,3.98640311 L22.3841897,8.98640311 Z"/><path d="M15.6302302,1.35929498 C16.5081781,1.19467975 17.6626765,1.70368053 18.1363722,2.46159371 L22.0760008,8.76499947 C22.222356,8.99916774 22.5308312,9.07035432 22.7649995,8.92399915 C22.9991677,8.77764399 23.0703543,8.4691688 22.9239992,8.23500053 L18.9843706,1.93159477 C18.2929352,0.825298233 16.7291056,0.135829557 15.4459417,0.376422793 L1.40785573,3.00856391 C1.13644307,3.05945378 0.957674033,3.32073161 1.00856391,3.59214427 C1.05945378,3.86355693 1.32073161,4.04232597 1.59214427,3.99143609 L15.6302302,1.35929498 Z"/><path d="M1,9.5 C1,9.77614237 1.22385763,10 1.5,10 C1.77614237,10 2,9.77614237 2,9.5 L2,7.5 C2,7.22385763 1.77614237,7 1.5,7 C1.22385763,7 1,7.22385763 1,7.5 L1,9.5 Z"/><path d="M22,14.5 C22,14.7761424 22.2238576,15 22.5,15 C22.7761424,15 23,14.7761424 23,14.5 L23,12.7188194 C23,12.442677 22.7761424,12.2188194 22.5,12.2188194 C22.2238576,12.2188194 22,12.442677 22,12.7188194 L22,14.5 Z"/><path d="M22.3841897,14.9864031 C22.6528228,15.0503633 22.9224429,14.8844433 22.9864031,14.6158103 C23.0503633,14.3471772 22.8844433,14.0775571 22.6158103,14.0135969 L1.61581026,9.01359689 C1.34717725,8.94963665 1.07755714,9.11555672 1.01359689,9.38418974 C0.94963665,9.65282275 1.11555672,9.92244286 1.38418974,9.98640311 L22.3841897,14.9864031 Z"/><path d="M22.3841897,10.9864031 C22.6528228,11.0503633 22.9224429,10.8844433 22.9864031,10.6158103 C23.0503633,10.3471772 22.8844433,10.0775571 22.6158103,10.0135969 L1.61581026,5.01359689 C1.34717725,4.94963665 1.07755714,5.11555672 1.01359689,5.38418974 C0.94963665,5.65282275 1.11555672,5.92244286 1.38418974,5.98640311 L22.3841897,10.9864031 Z"/><path d="M0.569805058,5.4358429 C0.0578370248,5.92182863 -0.164460785,6.55614577 0.134983809,7.26529554 C0.443271126,7.9953868 0.820778117,8.04876464 2.17513562,7.93050714 C2.95340662,7.86255139 3.44345318,7.86167281 4.03750353,7.96758505 C4.05823052,7.97128043 4.17550138,8.07597275 4.4437902,8.3712348 C4.86896272,8.83915333 5.08544523,9.02259968 5.45063665,9.08616602 C5.82223799,9.15084808 6.09360707,9.10702149 6.75919364,8.93790155 C6.8682111,8.91024127 6.91380513,8.89885364 6.97344354,8.88461282 C7.30711573,8.80493658 7.52312993,8.77976024 7.69828341,8.80565305 C7.97686708,8.84683588 8.19625727,9.01581819 8.64514075,9.50403267 C8.67054988,9.53168311 8.67054988,9.53168311 8.69625759,9.55967194 C9.33117542,10.250722 9.69531408,10.531572 10.3167634,10.6244181 C10.7507005,10.6892494 11.1757161,10.6389021 12.0812459,10.4679962 C12.9272824,10.3080401 13.2462331,10.2646855 13.5206718,10.288114 C13.9009504,10.320578 14.3137857,10.5830568 14.9328934,11.1448493 C14.7693081,10.9964082 15.4453016,11.6176416 15.5982309,11.7468181 C15.8699549,11.9763382 16.0915906,12.1235094 16.3218735,12.2031637 C16.7184268,12.3403305 17.0289555,12.3302805 18.1967883,12.2200856 C18.5920696,12.1827875 18.828989,12.1639706 19.079627,12.1529856 C19.5540223,12.1321937 19.9388625,12.1514532 20.2615464,12.2197858 C20.5705165,12.2852144 20.8655419,12.3960612 21.2621628,12.5822229 C22.7908161,13.2997259 23.10063,13.3690171 23.6882341,12.6358665 C24.1980171,11.9998127 24.0537496,10.9837533 23.2202884,10.4129083 C22.9514292,10.2287642 22.6879618,10.1025759 22.500208,10.0319854 C22.2417307,9.93480472 21.9534129,10.0655615 21.8562322,10.3240388 C21.7590515,10.5825161 21.8898082,10.8708339 22.1482856,10.9680146 C22.2672836,11.0127547 22.4639437,11.1069455 22.6552121,11.2379469 C23.0684994,11.5210112 23.1487748,11.7181309 22.9165892,11.9998128 C22.7751793,12.1713678 22.7067441,12.1555898 21.6870563,11.6769795 C21.2269097,11.4610008 20.8672869,11.3258835 20.4687156,11.2414807 C20.0507512,11.1529711 19.587275,11.1297763 19.0358408,11.1539447 C18.7640216,11.1658581 18.5137729,11.1857335 18.1028471,11.2245079 C17.1484234,11.3145658 16.8407882,11.3245222 16.6487678,11.2581028 C16.478781,11.1993048 16.5109937,11.2265142 15.6048896,10.4042947 C14.8293586,9.70056005 14.2764016,9.34899251 13.6057313,9.29173812 C13.2017331,9.25724923 12.8476427,9.30538032 11.9519017,9.47474164 C11.1137383,9.63294475 10.7424864,9.67692322 10.4645259,9.63539522 C10.1479611,9.58809965 9.9159839,9.40918205 9.43263879,8.88310508 C9.40709208,8.85529147 9.40709208,8.85529147 9.38127746,8.8271998 C8.7805,8.17378243 8.42861815,7.90275022 7.84452342,7.81640391 C7.51240242,7.7673067 7.18922666,7.80497267 6.74118725,7.9119582 C6.67554249,7.92763325 6.62487451,7.94028815 6.51292751,7.9686993 C5.99736707,8.09969887 5.79890533,8.13175079 5.62212127,8.10097922 C5.57199802,8.09225461 5.43922378,7.97974229 5.18389397,7.69874212 C4.71471168,7.18238917 4.5609785,7.04514549 4.21302406,6.98310928 C3.51298475,6.85830045 2.94689231,6.85931536 2.08815027,6.93429755 C1.22417962,7.00973628 1.10548111,6.99295282 1.05622136,6.87629506 C0.942576975,6.6071605 1.01944696,6.38781533 1.25826861,6.16111384 C1.37178252,6.05336075 1.48717489,5.97792323 1.54999131,5.94613834 C1.79638671,5.82146308 1.89506038,5.52065088 1.77038513,5.27425549 C1.64570988,5.02786009 1.34489768,4.92918641 1.09850228,5.05386166 C0.956213717,5.1258592 0.763948619,5.2515521 0.569805058,5.4358429 Z"/></g></g></g><text x="0" y="39" fill="#000000" font-size="5px" font-weight="bold" font-family="'Helvetica Neue', Helvetica, Arial-Unicode, Arial, Sans-serif">Created by Pham Thi Dieu Linh</text><text x="0" y="44" fill="#000000" font-size="5px" font-weight="bold" font-family="'Helvetica Neue', Helvetica, Arial-Unicode, Arial, Sans-serif">from the Noun Project</text></svg>