<?xml version="1.0" encoding="utf-8"?>
<!-- Generator: Adobe Illustrator 23.0.3, SVG Export Plug-In . SVG Version: 6.00 Build 0)  -->
<svg version="1.1" id="Capa_1" xmlns="http://www.w3.org/2000/svg" xmlns:xlink="http://www.w3.org/1999/xlink" x="0px" y="0px"
	 viewBox="0 0 91.7 87.1" style="enable-background:new 0 0 91.7 87.1;" xml:space="preserve">
<g>
	<g>
		<path d="M88.5,35.1H3.2c-1.3,0-2.3-1-2.3-2.3v-5.5c0-14.9,19.8-26.5,45-26.5c25.2,0,45,11.6,45,26.5v5.5
			C90.8,34,89.8,35.1,88.5,35.1z M5.5,30.5h80.8v-3.2c0-11.9-18.5-21.9-40.4-21.9C24,5.3,5.5,15.4,5.5,27.3
			C5.5,27.3,5.5,30.5,5.5,30.5z"/>
	</g>
	<g>
		<path d="M84,65.7H7.7c-3.8,0-6.9-3.1-6.9-6.8C0.9,55.1,4,52,7.7,52H84c3.8,0,6.9,3.1,6.9,6.8C90.8,62.6,87.8,65.7,84,65.7z
			 M7.7,56.6c-1.3,0-2.3,1-2.3,2.3s1,2.3,2.3,2.3H84c1.3,0,2.3-1,2.3-2.3s-1-2.3-2.3-2.3C84,56.6,7.7,56.6,7.7,56.6z"/>
	</g>
	<g>
		<path d="M84,86.4H7.7c-4.3,0-6.9-5.9-6.9-9.1v-2.4C0.9,71.1,4,68,7.7,68H84c3.8,0,6.9,3.1,6.9,6.9v2.4
			C90.8,80.5,88.2,86.4,84,86.4z M7.7,72.6c-1.3,0-2.3,1-2.3,2.3v2.4c0,1.9,1.6,4.5,2.3,4.6H84c0.7-0.1,2.3-2.7,2.3-4.6v-2.4
			c0-1.3-1-2.3-2.3-2.3H7.7z"/>
	</g>
	<g>
		<path d="M84,50.7H7.7c-3.8,0-6.9-3.1-6.9-6.8C0.9,40.1,4,37,7.7,37H84c3.8,0,6.9,3.1,6.9,6.8C90.8,47.6,87.8,50.7,84,50.7z
			 M7.7,41.6c-1.3,0-2.3,1-2.3,2.3s1,2.3,2.3,2.3H84c1.3,0,2.3-1,2.3-2.3s-1-2.3-2.3-2.3C84,41.6,7.7,41.6,7.7,41.6z"/>
	</g>
</g>
</svg>
