<?xml version="1.0" encoding="utf-8"?>
<!-- Generator: Adobe Illustrator 23.0.3, SVG Export Plug-In . SVG Version: 6.00 Build 0)  -->
<svg version="1.1" id="Capa_1" xmlns="http://www.w3.org/2000/svg" xmlns:xlink="http://www.w3.org/1999/xlink" x="0px" y="0px"
	 viewBox="0 0 109.3 156.3" style="enable-background:new 0 0 109.3 156.3;" xml:space="preserve">
<g>
	<g>
		<path d="M10.3,45.1h47.5L57,48.8H7.2c-1.2,0-2.3,0.5-3.1,1.5c-0.7,0.9-1,2.1-0.8,3.3l21.5,99.6c0.4,1.8,2,3.1,3.8,3.1h42.3
			c1.8,0,3.4-1.3,3.8-3.1l21.5-99.6c0.2-1.2,0-2.4-0.8-3.3c-0.7-0.9-1.9-1.5-3.1-1.5H64.8l0.8-3.7h23.5c5.5,0,9.9-4.4,9.9-9.9
			s-4.4-9.9-9.9-9.9H70l3.9-17.5h31.5c2.2,0,3.9-1.8,3.9-3.9c0-2.2-1.8-3.9-3.9-3.9H70.8l0,0l0,0c-0.1,0-0.1,0-0.2,0
			c-0.2,0-0.4,0-0.6,0.1c-0.1,0-0.2,0.1-0.3,0.1s-0.3,0.1-0.4,0.1c-0.1,0-0.2,0.1-0.3,0.2c-0.1,0.1-0.2,0.1-0.3,0.2
			c-0.1,0.1-0.2,0.1-0.3,0.2c-0.1,0.1-0.2,0.2-0.3,0.3s-0.2,0.2-0.2,0.3c-0.1,0.1-0.2,0.2-0.3,0.3S67.5,2,67.4,2.1
			c-0.1,0.1-0.1,0.2-0.2,0.3c-0.1,0.1-0.1,0.3-0.2,0.5c0,0.1-0.1,0.2-0.1,0.3v0.1l0,0l-5,22.2h-52c-5.5,0-9.9,4.4-9.9,9.9
			S4.8,45.1,10.3,45.1z M68.5,33.1h20.8c1.1,0,2.1,0.9,2.1,2.1s-0.9,2.1-2.1,2.1H67.6L68.5,33.1z M63.2,56.7h24.4l-19.8,91.7h-36
			L12,56.7h43.1l-6.5,28.7c-0.5,2.1,0.9,4.2,3,4.7c0.3,0.1,0.6,0.1,0.9,0.1c1.8,0,3.4-1.2,3.8-3.1L63.2,56.7z M10.3,33.1h50.2
			l-0.9,4.1H10.3c-1.1,0-2.1-0.9-2.1-2.1S9.1,33.1,10.3,33.1z"/>
	</g>
</g>
</svg>
