<?xml version="1.0" encoding="utf-8"?>
<!-- Generator: Adobe Illustrator 23.0.3, SVG Export Plug-In . SVG Version: 6.00 Build 0)  -->
<svg version="1.1" id="Capa_1" xmlns="http://www.w3.org/2000/svg" xmlns:xlink="http://www.w3.org/1999/xlink" x="0px" y="0px"
	 viewBox="0 0 256 320" style="enable-background:new 0 0 256 320;" xml:space="preserve">
<g>
	<g>
		<path d="M83.3,95h47.5l-0.8,3.7H80.2c-1.2,0-2.3,0.5-3.1,1.5c-0.7,0.9-1,2.1-0.8,3.3l21.5,99.6c0.4,1.8,2,3.1,3.8,3.1h42.3
			c1.8,0,3.4-1.3,3.8-3.1l21.5-99.6c0.2-1.2,0-2.4-0.8-3.3c-0.7-0.9-1.9-1.5-3.1-1.5h-27.5l0.8-3.7h23.5c5.5,0,9.9-4.4,9.9-9.9
			s-4.4-9.9-9.9-9.9H143l3.9-17.5h31.5c2.2,0,3.9-1.8,3.9-3.9c0-2.2-1.8-3.9-3.9-3.9h-34.6l0,0l0,0c-0.1,0-0.1,0-0.2,0
			c-0.2,0-0.4,0-0.6,0.1c-0.1,0-0.2,0.1-0.3,0.1s-0.3,0.1-0.4,0.1c-0.1,0-0.2,0.1-0.3,0.2c-0.1,0.1-0.2,0.1-0.3,0.2
			c-0.1,0.1-0.2,0.1-0.3,0.2c-0.1,0.1-0.2,0.2-0.3,0.3s-0.2,0.2-0.2,0.3c-0.1,0.1-0.2,0.2-0.3,0.3s-0.1,0.2-0.2,0.3
			c-0.1,0.1-0.1,0.2-0.2,0.3c-0.1,0.1-0.1,0.3-0.2,0.5c0,0.1-0.1,0.2-0.1,0.3v0.1l0,0l-5,22.2h-52c-5.5,0-9.9,4.4-9.9,9.9
			S77.8,95,83.3,95z M141.5,83h20.8c1.1,0,2.1,0.9,2.1,2.1s-0.9,2.1-2.1,2.1h-21.7L141.5,83z M136.2,106.6h24.4l-19.8,91.7h-36
			L85,106.6h43.1l-6.5,28.7c-0.5,2.1,0.9,4.2,3,4.7c0.3,0.1,0.6,0.1,0.9,0.1c1.8,0,3.4-1.2,3.8-3.1L136.2,106.6z M83.3,83h50.2
			l-0.9,4.1H83.3c-1.1,0-2.1-0.9-2.1-2.1S82.1,83,83.3,83z"/>
	</g>
</g>
</svg>
