<?xml version="1.0" encoding="utf-8"?>
<!-- Generator: Adobe Illustrator 23.0.3, SVG Export Plug-In . SVG Version: 6.00 Build 0)  -->
<svg version="1.1" id="Capa_1" xmlns="http://www.w3.org/2000/svg" xmlns:xlink="http://www.w3.org/1999/xlink" x="0px" y="0px"
	 viewBox="0 0 28.9 62" style="enable-background:new 0 0 28.9 62;" xml:space="preserve">
<g>
	<path d="M20.5,0h-12v4.6l-8,8v18.6l2,4v11.6l-2,4V58c0,2.2,1.8,4,4,4h20c2.2,0,4-1.8,4-4v-7.2l-2-4V35.3l2-4V12.6l-8-8V0z M18.5,2
		v2h-8V2H18.5z M26.5,15h-2v2h2v4h-2v2h2v4h-2v2h2v1.8l-2,4v12.5l2,4v6.8c0,1.1-0.9,2-2,2h-20c-1.1,0-2-0.9-2-2v-6.8l2-4V34.8l-2-4
		V29h20v-2h-20v-4h20v-2h-20v-4h20v-2h-20v-1.6L9.9,6h9.2l7.4,7.4V15z"/>
	<path d="M14.5,33.4l-5.6,7.4C8,42,7.5,43.5,7.5,45c0,3.9,3.1,7,7,7s7-3.1,7-7c0-1.5-0.5-3-1.4-4.2L14.5,33.4z M14.5,50
		c-2.8,0-5-2.2-5-5c0-1.1,0.4-2.1,1-3l4-5.3l4,5.3c0.6,0.9,1,1.9,1,3C19.5,47.8,17.3,50,14.5,50z"/>
</g>
</svg>
