<?xml version="1.0" encoding="utf-8"?>
<!-- Generator: Adobe Illustrator 23.0.3, SVG Export Plug-In . SVG Version: 6.00 Build 0)  -->
<svg version="1.1" id="Capa_1" xmlns="http://www.w3.org/2000/svg" xmlns:xlink="http://www.w3.org/1999/xlink" x="0px" y="0px"
	 viewBox="0 0 64 80" style="enable-background:new 0 0 64 80;" xml:space="preserve">
<title>onion rings-food-snack-fast food-junk food</title>
<path d="M17,56h30V46H17V56z M19,48h26v6H19V48z"/>
<rect x="25" y="50" width="18" height="2"/>
<path d="M14.1,16.2L14.1,16.2c-2,1.7-3.1,4.2-3.1,6.8v10.1l2,28c0,0.5,0.5,0.9,1,0.9h36c0.5,0,1-0.4,1-0.9l2-28V23
	c0-2.2-0.8-4.3-2.2-6c0,0-0.1-0.1-0.1-0.1c0.2-1,0.4-2,0.4-3c0-6.6-5.4-12-12-12C33.3,2,28.5,6,27.3,11.4C26.2,11.2,25.1,11,24,11
	C20,11,16.4,13,14.1,16.2z M13,32.4v-4.6c1.9,4.4,6.2,7.2,11,7.2c1.1,0,2.1-0.1,3.1-0.4c0.3,2,1,3.8,2.1,5.4h-1L13,32.4z M34.4,16
	h9.2c-1.1,2.5-4.1,3.7-6.6,2.6C35.8,18.1,34.9,17.2,34.4,16z M34,14c0-2.8,2.2-5,5-5s5,2.2,5,5H34z M39,23c5.5,0,10,4.5,10,10
	c0,0.1,0,0.3,0,0.4L45.7,35c1.1-3.7-0.9-7.6-4.6-8.7s-7.6,0.9-8.7,4.6c-1.1,3.6,0.8,7.4,4.3,8.6L35.8,40h-3.9C30,38.1,29,35.6,29,33
	C29,27.5,33.5,23,39,23z M39.9,37.9L39.9,37.9C39.6,38,39.3,38,39,38c-2.8,0-5-2.2-5-5c0-2.8,2.2-5,5-5s5,2.2,5,5
	c0,1.2-0.5,2.4-1.3,3.3c-0.1,0.1-0.1,0.2-0.2,0.3L39.9,37.9z M49.1,60H14.9l-1.8-25.3l14.4,7.2C27.7,42,27.8,42,28,42h8
	c0.2,0,0.3,0,0.5-0.1l14.4-7.2L49.1,60z M51,23v9.4l0,0c-0.2-3.5-1.9-6.8-4.7-8.9c1.5-1.2,2.7-2.7,3.5-4.4C50.6,20.3,51,21.6,51,23z
	 M39,4c5.5,0,10,4.5,10,10c0,3.4-1.7,6.5-4.5,8.3C42.8,21.5,40.9,21,39,21c-1.1,0-2.1,0.1-3.1,0.4c-0.1-0.4-0.1-0.9-0.2-1.3
	c1,0.6,2.2,0.9,3.3,0.9c3.9,0,7-3.1,7-7s-3.1-7-7-7s-7,3.1-7,7l0,0c-0.9-0.8-1.8-1.4-2.8-1.9C30.1,7.4,34.2,4,39,4z M24,13
	c5.2,0,9.5,3.9,10,9.1l0,0c-1.1,0.5-2.2,1.2-3.1,2.1C31,23.8,31,23.4,31,23c0-3.9-3.1-7-7-7s-7,3.1-7,7s3.1,7,7,7
	c1.3,0,2.6-0.4,3.7-1.1c-0.4,1.2-0.7,2.4-0.7,3.6c-1,0.3-2,0.5-3,0.5c-5.5,0-10-4.5-10-10S18.5,13,24,13z M29,23c0,2.8-2.2,5-5,5
	s-5-2.2-5-5s2.2-5,5-5S29,20.2,29,23z"/>
</svg>
