<?xml version="1.0" encoding="utf-8"?>
<!-- Generator: Adobe Illustrator 23.0.3, SVG Export Plug-In . SVG Version: 6.00 Build 0)  -->
<svg version="1.1" id="Capa_1" xmlns="http://www.w3.org/2000/svg" xmlns:xlink="http://www.w3.org/1999/xlink" x="0px" y="0px"
	 viewBox="0 0 17 17" style="enable-background:new 0 0 17 17;" xml:space="preserve">
<path d="M7.1,8.5L0.3,1.7c-0.4-0.4-0.4-1,0-1.4s1-0.4,1.4,0l6.8,6.8l6.8-6.8c0.4-0.4,1-0.4,1.4,0s0.4,1,0,1.4L9.9,8.5l6.8,6.8
	c0.4,0.4,0.4,1,0,1.4s-1,0.4-1.4,0L8.5,9.9l-6.8,6.8c-0.4,0.4-1,0.4-1.4,0s-0.4-1,0-1.4L7.1,8.5z"/>
</svg>
