<?xml version="1.0" encoding="utf-8"?>
<!-- Generator: Adobe Illustrator 23.0.3, SVG Export Plug-In . SVG Version: 6.00 Build 0)  -->
<svg version="1.1" id="Capa_1" xmlns="http://www.w3.org/2000/svg" xmlns:xlink="http://www.w3.org/1999/xlink" x="0px" y="0px"
	 viewBox="0 0 24 14.7" style="enable-background:new 0 0 24 14.7;" xml:space="preserve">
<style type="text/css">
	.st0{fill-rule:evenodd;clip-rule:evenodd;}
</style>
<title>food_013-sandwich-bread-fast_food-eat</title>
<desc>Created with Sketch.</desc>
<g>
	<g transform="translate(-141.000000, -93.000000)">
		<g transform="translate(141.000000, 99.000000)">
			<path class="st0" d="M1-0.8c0,0.3,0.2,0.5,0.5,0.5S2-0.6,2-0.8v-2c0-0.3-0.2-0.5-0.5-0.5S1-3.1,1-2.8V-0.8z"/>
			<path class="st0" d="M22,4.2c0,0.3,0.2,0.5,0.5,0.5S23,4.4,23,4.2v-2c0-0.3-0.2-0.5-0.5-0.5S22,1.9,22,2.2V4.2z"/>
			<path class="st0" d="M22.4,2.7c0.3,0.1,0.5-0.1,0.6-0.4c0.1-0.3-0.1-0.5-0.4-0.6l-21-5C1.3-3.4,1.1-3.2,1-2.9s0.1,0.5,0.4,0.6
				L22.4,2.7z"/>
			<path class="st0" d="M15.6-5c0.9-0.2,2,0.3,2.5,1.1l3.9,6.3c0.1,0.2,0.5,0.3,0.7,0.2c0.2-0.1,0.3-0.5,0.2-0.7L19-4.4
				c-0.7-1.1-2.3-1.8-3.5-1.6l-14,2.6C1.1-3.3,1-3,1-2.7s0.3,0.5,0.6,0.4L15.6-5z"/>
			<path class="st0" d="M1,3.2c0,0.3,0.2,0.5,0.5,0.5S2,3.4,2,3.2v-2c0-0.3-0.2-0.5-0.5-0.5S1,0.9,1,1.2V3.2z"/>
			<path class="st0" d="M22,8.2c0,0.3,0.2,0.5,0.5,0.5S23,8.4,23,8.2V6.4c0-0.3-0.2-0.5-0.5-0.5S22,6.1,22,6.4V8.2z"/>
			<path class="st0" d="M22.4,8.7c0.3,0.1,0.5-0.1,0.6-0.4c0.1-0.3-0.1-0.5-0.4-0.6l-21-5C1.3,2.6,1.1,2.8,1,3.1s0.1,0.5,0.4,0.6
				L22.4,8.7z"/>
			<path class="st0" d="M22.4,4.7c0.3,0.1,0.5-0.1,0.6-0.4c0.1-0.3-0.1-0.5-0.4-0.6l-21-5C1.3-1.4,1.1-1.2,1-0.9
				C0.9-0.7,1.1-0.4,1.4-0.3L22.4,4.7z"/>
			<path class="st0" d="M0.6-0.9C0.1-0.4-0.2,0.2,0.1,0.9c0.3,0.7,0.7,0.8,2,0.7C3,1.5,3.4,1.5,4,1.6c0,0,0.1,0.1,0.4,0.4
				c0.4,0.5,0.6,0.7,1,0.7c0.4,0.1,0.6,0,1.3-0.1c0.1,0,0.2,0,0.2-0.1c0.3-0.1,0.5-0.1,0.7-0.1c0.3,0,0.5,0.2,0.9,0.7
				c0,0,0,0,0.1,0.1c0.6,0.7,1,1,1.6,1.1c0.4,0.1,0.9,0,1.8-0.2C12.9,4,13.2,3.9,13.5,4c0.4,0,0.8,0.3,1.4,0.9
				c-0.2-0.1,0.5,0.5,0.7,0.6c0.3,0.2,0.5,0.4,0.7,0.5C16.7,6,17,6,18.2,5.9c0.4,0,0.6-0.1,0.9-0.1c0.5,0,0.9,0,1.2,0.1
				c0.3,0.1,0.6,0.2,1,0.4C22.8,7,23.1,7,23.7,6.3c0.5-0.6,0.4-1.7-0.5-2.2c-0.3-0.2-0.5-0.3-0.7-0.4c-0.3-0.1-0.5,0-0.6,0.3
				c-0.1,0.3,0,0.5,0.3,0.6c0.1,0,0.3,0.1,0.5,0.3c0.4,0.3,0.5,0.5,0.3,0.8c-0.1,0.2-0.2,0.2-1.2-0.3c-0.5-0.2-0.8-0.4-1.2-0.4
				c-0.4-0.1-0.9-0.1-1.4-0.1c-0.3,0-0.5,0-0.9,0.1c-1,0.1-1.3,0.1-1.5,0c-0.2-0.1-0.1,0-1-0.9c-0.8-0.7-1.3-1.1-2-1.1
				c-0.4,0-0.8,0-1.7,0.2c-0.8,0.2-1.2,0.2-1.5,0.2c-0.3,0-0.5-0.2-1-0.8c0,0,0,0-0.1-0.1c-0.6-0.7-1-0.9-1.5-1
				c-0.3,0-0.7,0-1.1,0.1c-0.1,0-0.1,0-0.2,0.1C6,1.8,5.8,1.8,5.6,1.8c-0.1,0-0.2-0.1-0.4-0.4c-0.5-0.5-0.6-0.7-1-0.7
				c-0.7-0.1-1.3-0.1-2.1,0c-0.9,0.1-1,0.1-1-0.1C0.9,0.3,1,0.1,1.3-0.2c0.1-0.1,0.2-0.2,0.3-0.2c0.2-0.1,0.3-0.4,0.2-0.7
				C1.6-1.3,1.3-1.4,1.1-1.3C1-1.2,0.8-1.1,0.6-0.9z"/>
		</g>
	</g>
</g>
</svg>
