<?xml version="1.0" encoding="utf-8"?>
<!-- Generator: Adobe Illustrator 23.0.3, SVG Export Plug-In . SVG Version: 6.00 Build 0)  -->
<svg version="1.1" id="Capa_1" xmlns="http://www.w3.org/2000/svg" xmlns:xlink="http://www.w3.org/1999/xlink" x="0px" y="0px"
	 viewBox="0 0 92.5 84.1" style="enable-background:new 0 0 92.5 84.1;" xml:space="preserve">
<g>
	<g>
		<path d="M89,34.3H3.6c-1.3,0-2.3-1-2.3-2.3v-5.5C1.3,11.6,21,0,46.3,0c25.2,0,45,11.6,45,26.5V32C91.2,33.3,90.2,34.3,89,34.3z
			 M5.9,29.7h80.8v-3.2c0-11.9-18.5-21.9-40.4-21.9c-21.9,0-40.4,10-40.4,21.9C5.9,26.5,5.9,29.7,5.9,29.7z"/>
	</g>
	<g>
		<path d="M84.4,63.4H8.2c-3.8,0-6.9-3.1-6.9-6.8c0-3.8,3.1-6.8,6.9-6.8h76.2c3.8,0,6.9,3.1,6.9,6.8C91.2,60.4,88.2,63.4,84.4,63.4z
			 M8.2,54.4c-1.3,0-2.3,1-2.3,2.3s1,2.3,2.3,2.3h76.2c1.3,0,2.3-1,2.3-2.3s-1-2.3-2.3-2.3C84.4,54.4,8.2,54.4,8.2,54.4z"/>
	</g>
	<g>
		<path d="M84.4,84.1H8.2c-4.3,0-6.9-5.9-6.9-9.1v-2.4c0-3.8,3.1-6.9,6.9-6.9h76.2c3.8,0,6.9,3.1,6.9,6.9V75
			C91.2,78.2,88.6,84.1,84.4,84.1z M8.2,70.3c-1.3,0-2.3,1-2.3,2.3V75c0,1.9,1.6,4.5,2.3,4.6h76.2c0.7-0.1,2.3-2.7,2.3-4.6v-2.4
			c0-1.3-1-2.3-2.3-2.3H8.2z"/>
	</g>
	<g>
		<path d="M88.9,47.5c-4.3,0-7.6-2.3-7.6-5.5c-0.1-0.2-1.2-0.9-3-0.9c-1.8,0-2.9,0.7-3.1,1c0,3-3.3,5.3-7.6,5.3s-7.6-2.3-7.6-5.5
			c-0.1-0.2-1.2-0.9-3-0.9s-2.9,0.7-3.1,1c0,3-3.3,5.3-7.6,5.3c-4.3,0-7.6-2.3-7.6-5.5c-0.1-0.2-1.2-0.9-3-0.9c-1.8,0-2.9,0.7-3.1,1
			c0,3-3.3,5.3-7.6,5.3s-7.6-2.3-7.6-5.5c-0.1-0.2-1.2-0.9-3-0.9s-2.9,0.7-3.1,1c0,3-3.3,5.3-7.6,5.3v-4.6c1.8,0,2.9-0.7,3.1-1
			c0-3,3.3-5.3,7.6-5.3s7.6,2.3,7.6,5.5c0.1,0.2,1.2,0.9,3,0.9c1.8,0,2.9-0.7,3.1-1c0-3,3.3-5.3,7.6-5.3c4.3,0,7.6,2.3,7.6,5.5
			c0.1,0.2,1.2,0.9,3,0.9c1.8,0,2.9-0.7,3.1-1c0-3,3.3-5.3,7.6-5.3c4.3,0,7.6,2.3,7.6,5.5c0.1,0.2,1.2,0.9,3,0.9s2.9-0.7,3.1-1
			c0-3,3.3-5.3,7.6-5.3s7.6,2.3,7.6,5.5c0.1,0.2,1.2,0.9,3,0.9L88.9,47.5L88.9,47.5z"/>
	</g>
</g>
</svg>
