<?xml version="1.0" encoding="utf-8"?>
<!-- Generator: Adobe Illustrator 23.0.3, SVG Export Plug-In . SVG Version: 6.00 Build 0)  -->
<svg version="1.1" id="Capa_1" xmlns="http://www.w3.org/2000/svg" xmlns:xlink="http://www.w3.org/1999/xlink" x="0px" y="0px"
	 viewBox="0 0 49.4 60" style="enable-background:new 0 0 49.4 60;" xml:space="preserve">
<g>
	<g>
		<path d="M47.8,22.3H1.4c-0.6,0-1.1-0.3-1.3-0.8C-0.1,21-0.1,20.4,0.3,20l4.3-5.6c0.3-0.4,0.7-0.6,1.2-0.6h37.8
			c0.5,0,0.9,0.2,1.2,0.6l4.3,5.6c0.3,0.4,0.4,1,0.2,1.5C48.9,22,48.4,22.3,47.8,22.3z M4.4,19.4h40.4l-2.1-2.7H6.4L4.4,19.4z"/>
	</g>
	<g>
		<path d="M38.8,59.3H10.4c-0.7,0-1.3-0.5-1.4-1.2l-6.1-37c-0.1-0.8,0.4-1.5,1.2-1.7c0.8-0.1,1.5,0.4,1.7,1.2l5.8,35.8h26l5.9-35.8
			c0.1-0.8,0.9-1.3,1.7-1.2c0.8,0.1,1.3,0.9,1.2,1.7l-6.1,37C40.2,58.8,39.6,59.3,38.8,59.3z"/>
	</g>
	<g>
		<g>
			<path d="M43.7,30H5.5C4.7,30,4,29.3,4,28.5S4.7,27,5.5,27h38.1c0.8,0,1.5,0.7,1.5,1.5S44.5,30,43.7,30z"/>
		</g>
		<g>
			<path d="M41.9,40.8H7.3c-0.8,0-1.5-0.7-1.5-1.5s0.7-1.5,1.5-1.5h34.6c0.8,0,1.5,0.7,1.5,1.5S42.7,40.8,41.9,40.8z"/>
		</g>
		<g>
			<path d="M40.1,51.6h-31c-0.8,0-1.5-0.7-1.5-1.5s0.7-1.5,1.5-1.5h31c0.8,0,1.5,0.7,1.5,1.5S40.9,51.6,40.1,51.6z"/>
		</g>
	</g>
	<g>
		<path d="M24.6,16.7c-0.8,0-1.5-0.7-1.5-1.5V7.5c0-0.6,0.4-1.2,1-1.4l15.5-5.3c0.8-0.3,1.6,0.1,1.9,0.9s-0.1,1.6-0.9,1.9l-14.5,5
			v6.7C26.1,16,25.4,16.7,24.6,16.7z"/>
	</g>
</g>
</svg>
