<?xml version="1.0" encoding="utf-8"?>
<!-- Generator: Adobe Illustrator 23.0.3, SVG Export Plug-In . SVG Version: 6.00 Build 0)  -->
<svg version="1.1"
	 id="Capa_1" xmlns:cc="http://creativecommons.org/ns#" xmlns:dc="http://purl.org/dc/elements/1.1/" xmlns:inkscape="http://www.inkscape.org/namespaces/inkscape" xmlns:rdf="http://www.w3.org/1999/02/22-rdf-syntax-ns#" xmlns:sodipodi="http://sodipodi.sourceforge.net/DTD/sodipodi-0.dtd" xmlns:svg="http://www.w3.org/2000/svg"
	 xmlns="http://www.w3.org/2000/svg" xmlns:xlink="http://www.w3.org/1999/xlink" x="0px" y="0px" viewBox="0 0 88.5 79.3"
	 style="enable-background:new 0 0 88.5 79.3;" xml:space="preserve">
<g transform="translate(0,-952.36218)">
	<path d="M34.1,953c-0.8,0.1-1.5,0.6-1.7,1.3c-0.3,0.7-0.1,1.6,0.5,2.1c1.1,1.1,1.4,2.2,1.4,3.8c0,1.1-0.8,2.3-2.1,3.9
		c-1.3,1.6-2.9,3.7-2.9,6.5c0,4.9,3.8,7.8,3.8,7.8c0.8,0.8,2.3,0.7,3-0.2c0.7-0.9,0.5-2.3-0.5-2.9c0,0-2.3-1.9-2.3-4.7
		c0-1.2,0.8-2.5,2.1-4.1c1.2-1.6,2.9-3.6,2.9-6.4c0-2.4-0.7-4.8-2.6-6.6C35.3,953.2,34.7,952.9,34.1,953L34.1,953z M45.1,953
		c-0.8,0.1-1.5,0.6-1.7,1.3c-0.3,0.7-0.1,1.6,0.5,2.1c1.1,1.1,1.4,2.2,1.4,3.8c0,1.1-0.8,2.3-2.1,3.9s-2.9,3.7-2.9,6.5
		c0,4.9,3.8,7.8,3.8,7.8c0.8,0.8,2.3,0.7,3-0.2c0.7-0.9,0.5-2.3-0.5-2.9c0,0-2.3-1.9-2.3-4.7c0-1.2,0.8-2.5,2.1-4.1
		c1.2-1.6,2.9-3.6,2.9-6.4c0-2.4-0.7-4.8-2.6-6.6C46.3,953.2,45.7,952.9,45.1,953L45.1,953z M56.1,953c-0.8,0.1-1.5,0.6-1.7,1.3
		c-0.3,0.7-0.1,1.6,0.5,2.1c1.1,1.1,1.4,2.2,1.4,3.8c0,1.1-0.8,2.3-2.1,3.9s-2.9,3.7-2.9,6.5c0,4.9,3.8,7.8,3.8,7.8
		c0.8,0.8,2.3,0.7,3-0.2c0.7-0.9,0.5-2.3-0.5-2.9c0,0-2.3-1.9-2.3-4.7c0-1.2,0.8-2.5,2.1-4.1c1.2-1.6,2.9-3.6,2.9-6.4
		c0-2.4-0.7-4.8-2.6-6.6C57.3,953.2,56.7,952.9,56.1,953L56.1,953z M19.8,983c-2.2,0-4.1,0.6-5.7,1.7s-2.8,2.6-2.8,4.6v3.2
		c0,6.9,3,14.3,7,20.1c1.7,2.4,3.5,4.7,5.5,6.4c-7.2,0-14.5,0-21.7,0c-1.2,0.1-2.1,1.6-1.7,2.7c2.1,5.5,7.7,9.3,14.3,9.3h57.2
		c6.5,0,12.2-3.8,14.3-9.3c0.5-1.2-0.6-2.7-1.9-2.7H62.8c0.7-0.6,1.4-1.3,2-2c0.4-0.1,0.8-0.2,1.1-0.2c0.7-0.2,1.6-0.4,2.7-0.7
		c2.2-0.6,5-1.6,7.8-2.9s5.7-3,7.9-5.3s3.9-5.3,3.9-8.7v-1c0-1.7-0.5-3.6-1.8-5.2s-3.5-2.8-6.3-2.8l0,0c-2.2,0-3.2,0.3-5,0.7v-1.5
		c0-2-1.2-3.5-2.8-4.6c-1.5-1-3.5-1.7-5.7-1.7L19.8,983L19.8,983z M19.8,987h47.1c1.4,0,2.7,0.4,3.5,1c0.8,0.5,1,1.1,1,1.2v3.2
		c0,5.7-2.7,12.6-6.3,17.9s-8.3,8.7-11,8.7H32.7c-2.6,0-7.3-3.4-11-8.7c-3.6-5.3-6.3-12.2-6.3-17.9v-3.2c0-0.2,0.2-0.7,1-1.2
		C17.1,987.4,18.4,987,19.8,987z M21,991.9c-1,0.2-1.8,1.3-1.7,2.3c0.7,4.7,2.9,9.7,6.4,14c0.7,0.8,2,1,2.8,0.3s1-2,0.3-2.8
		c-3.1-3.8-5.1-8.1-5.6-12C23.1,992.6,22,991.8,21,991.9z M80.3,994L80.3,994c1.7,0,2.5,0.5,3.1,1.3c0.6,0.7,0.9,1.8,0.9,2.7v1
		c0,2.3-1,4.2-2.8,5.9c-1.7,1.8-4.2,3.3-6.8,4.6c-2.1,1-4.2,1.8-6,2.3c3.3-5,5.9-11.1,6.4-17C77.6,994.2,78,994,80.3,994L80.3,994z
		 M5.8,1023c25,0,50,0,75,0c-2,2.4-5.2,4-8.9,4H14.7C11,1027,7.8,1025.4,5.8,1023z"/>
</g>
</svg>
