<?xml version="1.0" encoding="utf-8"?>
<!-- Generator: Adobe Illustrator 23.0.3, SVG Export Plug-In . SVG Version: 6.00 Build 0)  -->
<svg version="1.1"
	 id="Capa_1" xmlns:cc="http://creativecommons.org/ns#" xmlns:dc="http://purl.org/dc/elements/1.1/" xmlns:inkscape="http://www.inkscape.org/namespaces/inkscape" xmlns:rdf="http://www.w3.org/1999/02/22-rdf-syntax-ns#" xmlns:sodipodi="http://sodipodi.sourceforge.net/DTD/sodipodi-0.dtd" xmlns:svg="http://www.w3.org/2000/svg"
	 xmlns="http://www.w3.org/2000/svg" xmlns:xlink="http://www.w3.org/1999/xlink" x="0px" y="0px" viewBox="0 0 100 125"
	 style="enable-background:new 0 0 100 125;" xml:space="preserve">
<g transform="translate(0,-952.36218)">
	<path d="M54,963.4c-3.8,0-7.1,2.1-9.9,4.5s-5.4,5.2-7.4,6.9c-3.3,2.9-10.4,4.6-16.8,8.6c-6.4,4-11.9,10.9-11.9,23.9
		c0,18.8,15.3,34,34,34c17,0,22.6-13.2,28.2-17.4c4.4-3.4,9.6-5.3,14-8.6c4.4-3.2,7.8-8,7.8-16v-0.1v-0.1
		c-0.4-6.8-3.7-10.7-7.5-13.1s-7.9-3.7-11.3-6.3c-1.9-1.5-4-5.5-6.8-9.2S59.8,963.4,54,963.4z M54,967.4c4.2,0,6.8,2.4,9.3,5.7
		s4.4,7.4,7.5,9.9c4.1,3.2,8.5,4.6,11.7,6.6c3.1,2,5.2,4.1,5.6,9.9c0,0,0,0,0,0.1c0,6.9-2.4,10-6.2,12.7c-3.8,2.7-9.1,4.8-14.1,8.6
		c-7.4,5.6-10.8,16.6-25.8,16.6c-16.6,0-30-13.4-30-30c0-12,4.5-17,10.1-20.5c5.6-3.5,12.6-4.9,17.2-8.9c2.3-2,4.8-4.8,7.3-6.9
		S51.8,967.4,54,967.4z M43,989.4c-9.4,0-17,7.6-17,17c0,9.4,7.6,17,17,17s17-7.6,17-17C60,997,52.4,989.4,43,989.4z M43,993.4
		c7.2,0,13,5.8,13,13c0,7.2-5.8,13-13,13s-13-5.8-13-13C30,999.2,35.8,993.4,43,993.4z"/>
</g>
</svg>
