<?xml version="1.0" encoding="utf-8"?>
<!-- Generator: Adobe Illustrator 23.0.3, SVG Export Plug-In . SVG Version: 6.00 Build 0)  -->
<svg version="1.1" id="Capa_1" xmlns="http://www.w3.org/2000/svg" xmlns:xlink="http://www.w3.org/1999/xlink" x="0px" y="0px"
	 viewBox="0 0 100 125" style="enable-background:new 0 0 100 125;" xml:space="preserve">
<g>
	<g>
		<path d="M73.2,42.3H26.8c-0.6,0-1.1-0.3-1.3-0.8c-0.2-0.5-0.2-1.1,0.2-1.5l4.3-5.6c0.3-0.4,0.7-0.6,1.2-0.6H69
			c0.5,0,0.9,0.2,1.2,0.6l4.3,5.6c0.3,0.4,0.4,1,0.2,1.5C74.3,42,73.8,42.3,73.2,42.3z M29.8,39.4h40.4l-2.1-2.7H31.8L29.8,39.4z"/>
	</g>
	<g>
		<path d="M64.2,79.3H35.8c-0.7,0-1.3-0.5-1.4-1.2l-6.1-37c-0.1-0.8,0.4-1.5,1.2-1.7c0.8-0.1,1.5,0.4,1.7,1.2L37,76.4h26l5.9-35.8
			c0.1-0.8,0.9-1.3,1.7-1.2c0.8,0.1,1.3,0.9,1.2,1.7l-6.1,37C65.6,78.8,65,79.3,64.2,79.3z"/>
	</g>
	<g>
		<g>
			<path d="M69.1,50H30.9c-0.8,0-1.5-0.7-1.5-1.5s0.7-1.5,1.5-1.5H69c0.8,0,1.5,0.7,1.5,1.5S69.9,50,69.1,50z"/>
		</g>
		<g>
			<path d="M67.3,60.8H32.7c-0.8,0-1.5-0.7-1.5-1.5s0.7-1.5,1.5-1.5h34.6c0.8,0,1.5,0.7,1.5,1.5S68.1,60.8,67.3,60.8z"/>
		</g>
		<g>
			<path d="M65.5,71.6h-31c-0.8,0-1.5-0.7-1.5-1.5s0.7-1.5,1.5-1.5h31c0.8,0,1.5,0.7,1.5,1.5S66.3,71.6,65.5,71.6z"/>
		</g>
	</g>
	<g>
		<path d="M50,36.7c-0.8,0-1.5-0.7-1.5-1.5v-7.7c0-0.6,0.4-1.2,1-1.4L65,20.8c0.8-0.3,1.6,0.1,1.9,0.9s-0.1,1.6-0.9,1.9l-14.5,5v6.7
			C51.5,36,50.8,36.7,50,36.7z"/>
	</g>
</g>
</svg>
