<?xml version="1.0" encoding="utf-8"?>
<!-- Generator: Adobe Illustrator 19.0.0, SVG Export Plug-In . SVG Version: 6.00 Build 0)  -->
<svg version="1.1"
	 id="Capa_1" xmlns:cc="http://creativecommons.org/ns#" xmlns:rdf="http://www.w3.org/1999/02/22-rdf-syntax-ns#" xmlns:svg="http://www.w3.org/2000/svg" xmlns:sodipodi="http://sodipodi.sourceforge.net/DTD/sodipodi-0.dtd" xmlns:inkscape="http://www.inkscape.org/namespaces/inkscape" xmlns:dc="http://purl.org/dc/elements/1.1/"
	 xmlns="http://www.w3.org/2000/svg" xmlns:xlink="http://www.w3.org/1999/xlink" x="0px" y="0px" viewBox="-255 334 100 125"
	 style="enable-background:new -255 334 100 125;" xml:space="preserve">
<g transform="translate(0,-952.36218)">
	<path d="M-215.2,1297.4c-0.8,0.1-1.5,0.6-1.7,1.3c-0.3,0.7-0.1,1.6,0.5,2.1c1.1,1.1,1.4,2.2,1.4,3.8c0,1.1-0.8,2.3-2.1,3.9
		s-2.9,3.7-2.9,6.5c0,4.9,3.8,7.8,3.8,7.8c0.8,0.8,2.3,0.7,3-0.2c0.7-0.9,0.5-2.3-0.5-2.9c0,0-2.3-1.9-2.3-4.7
		c0-1.2,0.8-2.5,2.1-4.1c1.2-1.6,2.9-3.6,2.9-6.4c0-2.4-0.7-4.8-2.6-6.6C-214,1297.6-214.6,1297.3-215.2,1297.4L-215.2,1297.4z
		 M-204.2,1297.4c-0.8,0.1-1.5,0.6-1.7,1.3c-0.3,0.7-0.1,1.6,0.5,2.1c1.1,1.1,1.4,2.2,1.4,3.8c0,1.1-0.8,2.3-2.1,3.9
		s-2.9,3.7-2.9,6.5c0,4.9,3.8,7.8,3.8,7.8c0.8,0.8,2.3,0.7,3-0.2c0.7-0.9,0.5-2.3-0.5-2.9c0,0-2.3-1.9-2.3-4.7
		c0-1.2,0.8-2.5,2.1-4.1c1.2-1.6,2.9-3.6,2.9-6.4c0-2.4-0.7-4.8-2.6-6.6C-203,1297.6-203.6,1297.3-204.2,1297.4L-204.2,1297.4z
		 M-193.2,1297.4c-0.8,0.1-1.5,0.6-1.7,1.3c-0.3,0.7-0.1,1.6,0.5,2.1c1.1,1.1,1.4,2.2,1.4,3.8c0,1.1-0.8,2.3-2.1,3.9
		s-2.9,3.7-2.9,6.5c0,4.9,3.8,7.8,3.8,7.8c0.8,0.8,2.3,0.7,3-0.2c0.7-0.9,0.5-2.3-0.5-2.9c0,0-2.3-1.9-2.3-4.7
		c0-1.2,0.8-2.5,2.1-4.1c1.2-1.6,2.9-3.6,2.9-6.4c0-2.4-0.7-4.8-2.6-6.6C-192,1297.6-192.6,1297.3-193.2,1297.4L-193.2,1297.4z
		 M-229.5,1327.4c-2.2,0-4.1,0.6-5.7,1.7s-2.8,2.6-2.8,4.6v3.2c0,6.9,3,14.3,7,20.1c1.7,2.4,3.5,4.7,5.5,6.4c-7.2,0-14.5,0-21.7,0
		c-1.2,0.1-2.1,1.6-1.7,2.7c2.1,5.5,7.7,9.3,14.3,9.3h57.2c6.5,0,12.2-3.8,14.3-9.3c0.5-1.2-0.6-2.7-1.9-2.7h-21.5
		c0.7-0.6,1.4-1.3,2-2c0.4-0.1,0.8-0.2,1.1-0.2c0.7-0.2,1.6-0.4,2.7-0.7c2.2-0.6,5-1.6,7.8-2.9c2.8-1.3,5.7-3,7.9-5.3
		c2.2-2.3,3.9-5.3,3.9-8.7v-1c0-1.7-0.5-3.6-1.8-5.2c-1.3-1.6-3.5-2.8-6.3-2.8c0,0,0,0,0,0c-2.2,0-3.2,0.3-5,0.7v-1.5
		c0-2-1.2-3.5-2.8-4.6c-1.5-1-3.5-1.7-5.7-1.7H-229.5z M-229.5,1331.4h47.1c1.4,0,2.7,0.4,3.5,1c0.8,0.5,1,1.1,1,1.2v3.2
		c0,5.7-2.7,12.6-6.3,17.9c-3.6,5.3-8.3,8.7-11,8.7h-21.4c-2.6,0-7.3-3.4-11-8.7c-3.6-5.3-6.3-12.2-6.3-17.9v-3.2
		c0-0.2,0.2-0.7,1-1.2C-232.2,1331.8-230.9,1331.4-229.5,1331.4z M-228.3,1336.3c-1,0.2-1.8,1.3-1.7,2.3c0.7,4.7,2.9,9.7,6.4,14
		c0.7,0.8,2,1,2.8,0.3c0.8-0.7,1-2,0.3-2.8c-3.1-3.8-5.1-8.1-5.6-12C-226.2,1337-227.3,1336.2-228.3,1336.3z M-169,1338.4
		C-169,1338.4-169,1338.4-169,1338.4c1.7,0,2.5,0.5,3.1,1.3c0.6,0.7,0.9,1.8,0.9,2.7v1c0,2.3-1,4.2-2.8,5.9
		c-1.7,1.8-4.2,3.3-6.8,4.6c-2.1,1-4.2,1.8-6,2.3c3.3-5,5.9-11.1,6.4-17C-171.7,1338.6-171.3,1338.4-169,1338.4L-169,1338.4z
		 M-243.5,1367.4c25,0,50,0,75,0c-2,2.4-5.2,4-8.9,4h-57.2C-238.3,1371.4-241.5,1369.8-243.5,1367.4z"/>
</g>
</svg>
